<?xml version="1.0" encoding="utf-8"?>
<!-- Generator: Adobe Illustrator 18.0.0, SVG Export Plug-In . SVG Version: 6.00 Build 0)  -->
<!DOCTYPE svg PUBLIC "-//W3C//DTD SVG 1.1//EN" "http://www.w3.org/Graphics/SVG/1.1/DTD/svg11.dtd">
<svg version="1.1" id="Слой_1" xmlns="http://www.w3.org/2000/svg" xmlns:xlink="http://www.w3.org/1999/xlink" x="0px" y="0px"
	 viewBox="0 0 152.5 107" enable-background="new 0 0 152.5 107" xml:space="preserve">
<path fill="#FFFFFF" d="M49.8,1.6c2.2-2.2,5.5-2.2,7.7,0c2.1,2.1,2.1,5.5,0,7.6l-39,39h128.7c3,0,5.5,2.4,5.5,5.4
	c0,3-2.5,5.5-5.5,5.5H18.5l39,38.9c2.1,2.2,2.1,5.6,0,7.7c-2.2,2.2-5.5,2.2-7.7,0L1.6,57.5c-2.1-2.1-2.1-5.5,0-7.6L49.8,1.6z
	 M49.8,1.6"/>
<rect y="0" fill="none" width="157" height="109"/>
</svg>
